Encoded By .......:UnKnOwN
Runtime ..........:1:12
IMDb URL ........:http://www.imdb.com/title/tt1313244/
Language .........:English
File Size ........:722mb
Release Date ......... 2012
Source ......... Your Sister
File Type ......... Single AVI
PS3 Compatible ....... Fuck your PS3
Genre ......... Horror/Thriller

Video
ID: 0
Format: MPEG-4 Visual
Format profile: Advanced Simple@L5
Format settings, BVOP: Yes
Format settings, QPel: No
Format settings, GMC: No warppoints
Format settings, Matrix: Custom
Codec ID: XVID
Codec ID/Hint: XviD
Duration: 1h 12mn
Bit rate: 1681kbps
Width: 680pixels
Height: 400pixels
Display aspect ratio: 1:78
Frame rate: 25.000fps
Color space: YUV
Chroma subsampling: 4:2:0
Bit depth: 8 bits
Scan type: Progressive
Bits/(Pixel*Frame): 0.234
Stream size: 892 MiB (86%)
Writing library: XviD 1.2.1 (UTC 2008-12-04)

Audio
ID: 1
Format: AC3
Format/Info: MPEG
Mode extension: CM (complete main)
Codec ID: 2000
Duration: 1h 27mn
Bit rate mode: Constant
Bit rate: 128kbps
Channel(s): 2channels
Channel positions: Front: L R
Sampling rate: 48.0 KHz
Bit depth: 16 bits
Stream size: 302 MiB
Alignment: Aligned on interleaves
Interleave, duration: 42 ms (1.00 video frame)
Interleave, preload duration: 512 ms

SYNOPSIS
Ray Pelletier just wants to spend a pleasant weekend ice fishing trip
with his family. Alas, Ray's plans are ruined by the unwanted presence of the
obnoxious big city father and son duo of Steve Cote and Stevie Jr. However
two squabbling families are forced to set aside their differences and work
together after a vicious monster awakens from the cold waters of the remote
frozen lake area they are staying at...

RELEASE INFO
Enjoy

LOOKING FOR

A sex slave send your girl over

GREETZ & RESPECT

NOBODY YET WILL LET YOU KNOW

MORE GOODIES COMING REAL SOON